<svg id="Calque_1" data-name="Calque 1" xmlns="http://www.w3.org/2000/svg" viewBox="0 0 555.47 188.96"><title>adb</title><path d="M671,480.5V452.08H613.9L595.45,480.5H539.2l111-171.39q11.43-17.58,31.35-17.58,14.94,0,25.93,11t11,25.93v67.09H671V363.9l-26.95,41h74.41V480.5Z" transform="translate(-539.2 -291.53)" style="fill:#ed1c24"/><path d="M870.54,480.5H737.24V348.08h47.17v85.25h70.9L793.79,338.7H737.24V291.53h63.29q19.92,0,31.05,17.58,13.18,19,26.66,37.79,20.81,29.6,34.28,52.74,17.28,29.6,17.28,41.6,0,15.83-11.72,27.54T870.54,480.5Z" transform="translate(-539.2 -291.53)" style="fill:#ed1c24"/><path d="M1055.41,480.5H922.11V348.08h47.46v9.66h47.17v-19H922.11V291.53h118.06q14.36,0,20.8,18.46,4.69,13.77,4.69,37.79,0,11.73-.58,18.75t-1.18,15.82q9.38,13.78,19,27.25,11.71,18.45,11.72,31.64a39,39,0,0,1-39.26,39.26ZM1022,404.91H969.57v28.42h70.6Z" transform="translate(-539.2 -291.53)" style="fill:#ed1c24"/></svg>