<?xml version="1.0" encoding="utf-8"?>
<!-- Generator: Adobe Illustrator 22.1.0, SVG Export Plug-In . SVG Version: 6.00 Build 0)  -->
<svg version="1.1" id="Calque_1" xmlns="http://www.w3.org/2000/svg" xmlns:xlink="http://www.w3.org/1999/xlink" x="0px" y="0px"
	 viewBox="0 0 124 132" style="enable-background:new 0 0 124 132;" xml:space="preserve">
<style type="text/css">
	.st0{fill:#005B7D;}
	.st1{fill:#FFFFFF;}
	.st2{clip-path:url(#SVGID_2_);}
	.st3{fill:#E3051B;}
	.st4{fill:#06A3DC;}
</style>
<g id="Calque_2_2_">
	<g id="SOUS_HOME_02_1_">
		<rect class="st0" width="124" height="52.2"/>
		<path class="st1" d="M16.6,13.1v15.1c0,2.4,0.4,4,1.2,5.2c1.2,1.6,3,2.5,5,2.4c2,0.1,3.9-0.8,5-2.4c0.8-1.1,1.2-2.7,1.2-5.2V13.1
			h4.2v16.1c0.1,2.7-0.9,5.3-2.8,7.3c-2,2.1-4.8,3.3-7.7,3.2c-5.6,0.1-10.3-4.3-10.5-9.9c0-0.2,0-0.4,0-0.6V13.1H16.6z"/>
		<path class="st1" d="M39.9,14.7v24.5h4.3V12.7c0-0.1-0.1-0.3-0.3-0.3c0,0-0.1,0-0.1,0L39.9,14.7z"/>
		<path class="st1" d="M78,39.1h-4.3V22.4c0-0.3-0.1-0.3-0.3-0.2l-9,9.1c-0.1,0-0.1,0-0.2,0l-9-9.1c-0.1-0.1-0.3,0-0.3,0.2v16.7
			h-4.3V12.7c0-0.1,0.1-0.3,0.3-0.3c0.1,0,0.1,0,0.2,0.1l13,13.1c0,0,0.1,0.1,0.2,0c0,0,0,0,0,0l13-13c0.1-0.1,0.3-0.1,0.4,0
			c0.1,0.1,0.1,0.1,0.1,0.2L78,39.1z"/>
		<path class="st1" d="M111.6,39.1h-4.3V22.4c0-0.3-0.2-0.3-0.3-0.2l-9,9.1c-0.1,0-0.1,0-0.2,0l-9-9.1c-0.1-0.1-0.3,0-0.3,0.2v16.7
			h-4.3V12.7c0-0.1,0.1-0.3,0.2-0.3c0.1,0,0.2,0,0.2,0.1l13,13.1c0,0,0.1,0.1,0.2,0c0,0,0,0,0,0l13-13c0.1-0.1,0.3-0.1,0.4,0
			c0,0.1,0.1,0.1,0.1,0.2L111.6,39.1z"/>
	</g>
</g>
<g>
	<defs>
		<rect id="SVGID_1_" width="124" height="132"/>
	</defs>
	<clipPath id="SVGID_2_">
		<use xlink:href="#SVGID_1_"  style="overflow:visible;"/>
	</clipPath>
	<g id="Calque_2_1_" class="st2">
		<g id="SOUS_HOME_02">
			<rect y="79.7" class="st3" width="142" height="52.2"/>
			<polygon class="st1" points="13,94.9 12,94.9 12,104.8 17.9,104.8 17.9,103.8 13,103.8 			"/>
			<polygon class="st1" points="23.7,94.8 20.2,98.7 20.1,98.8 20.1,104.8 21.1,104.8 21.1,99.1 23.7,96.3 26.3,99.1 26.3,104.8 
				27.3,104.8 27.3,98.8 23.8,94.9 			"/>
			<rect x="22" y="101.1" class="st1" width="3.5" height="0.9"/>
			<path class="st1" d="M39.4,108.3c-0.4-0.3-0.8-0.5-1.3-0.6c-0.7-0.2-1.4-0.2-2.2-0.2h-3.4v9.9h3c0.5,0,0.9,0,1.3,0
				c0.3,0,0.7-0.1,1-0.2s0.5-0.2,0.8-0.3c0.2-0.1,0.4-0.2,0.6-0.4c0.5-0.4,0.8-1,1-1.6c0.3-0.8,0.4-1.7,0.4-2.6
				c0-0.8-0.1-1.7-0.3-2.5C40.1,109.2,39.8,108.7,39.4,108.3z M33.5,108.4h2.3c0.3,0,0.6,0,0.9,0s0.5,0,0.8,0.1
				c0.2,0,0.5,0.1,0.7,0.2c0.2,0.1,0.3,0.2,0.5,0.3c0.3,0.4,0.5,0.8,0.6,1.3c0.1,0.7,0.2,1.3,0.2,2c0,0.8-0.1,1.5-0.3,2.2
				c-0.2,0.9-0.9,1.6-1.8,1.7c-0.7,0.1-1.3,0.2-2,0.2h-1.8v-8H33.5z"/>
			<polygon class="st1" points="43.6,112.8 48,112.8 48,111.8 43.6,111.8 43.6,108.4 48.8,108.4 48.8,107.5 42.6,107.5 42.6,117.3 
				49,117.3 49,116.4 43.6,116.4 			"/>
			<polygon class="st1" points="55.2,107.5 54.2,107.5 54.2,117.3 60.4,117.3 60.4,116.4 55.2,116.4 			"/>
			<polygon class="st1" points="61.1,107.5 59.4,111 60.4,111 62.2,107.5 			"/>
			<polygon class="st1" points="76,116.3 75.8,116.3 72.6,107.5 71.5,107.5 75.1,117.3 76.7,117.3 80.5,107.5 79.4,107.5 			"/>
			<polygon class="st1" points="82.5,112.8 86.9,112.8 86.9,111.8 82.5,111.8 82.5,108.4 87.7,108.4 87.7,107.5 81.5,107.5 
				81.5,117.3 88,117.3 88,116.4 82.5,116.4 			"/>
			<polygon class="st1" points="97.3,116.3 97.2,116.3 91.7,107.5 90.2,107.5 90.2,117.3 91.2,117.3 91.2,108.4 91.2,108.4 
				96.7,117.3 98.2,117.3 98.2,107.5 97.3,107.5 			"/>
			<rect x="100.9" y="107.5" class="st1" width="1" height="9.9"/>
			<polygon class="st1" points="66.9,107.4 63.4,111.3 63.4,111.3 63.4,117.3 64.4,117.3 64.4,111.7 66.9,108.9 69.5,111.7 
				69.5,117.3 70.5,117.3 70.5,111.3 67,107.5 			"/>
			<rect x="65.2" y="113.6" class="st1" width="3.5" height="0.9"/>
			<polygon class="st1" points="33.5,100.5 37.7,100.5 37.7,99.5 33.5,99.5 33.5,95.8 38.6,95.8 38.6,94.9 32.5,94.9 32.5,104.8 
				33.5,104.8 			"/>
			<polygon class="st1" points="41,99.1 43.5,96.3 46.1,99.1 46.1,104.8 47.1,104.8 47.1,98.8 43.6,94.9 43.5,94.8 40,98.7 40,98.8 
				40,104.8 41,104.8 			"/>
			<rect x="41.8" y="101.1" class="st1" width="3.5" height="0.9"/>
			<path class="st1" d="M55.1,99.5c0.4-0.5,0.7-1.2,0.6-1.8v-0.3c0.2-1.2-0.7-2.3-1.9-2.4c-0.1,0-0.2,0-0.3,0h-4.3v9.9h4.7
				c1.5,0,2.2-1.2,2.2-2.6V102C56.4,100.9,55.9,100,55.1,99.5z M50.4,95.8h3.2c1.1,0,1.2,1.1,1.2,1.5v0.3c0,0.5-0.1,1.5-1.2,1.5
				h-3.2V95.8z M55.4,102.1c0.1,0.8-0.5,1.6-1.3,1.7c-0.1,0-0.1,0-0.2,0h-3.5V100H54c0.8,0,1.5,0.7,1.5,1.6c0,0.1,0,0.1,0,0.2
				L55.4,102.1z"/>
			<path class="st1" d="M64.7,104.8h1.2c0,0-1.6-3-2.3-4.3c1.3-0.2,2.1-1.4,2-2.6v-0.3c0.2-1.3-0.8-2.5-2.1-2.7c-0.1,0-0.2,0-0.3,0
				h-4.4v9.9h1v-4.2h2.7C62.7,101,64.7,104.8,64.7,104.8z M64.6,97.5v0.3c0,0.5-0.1,1.8-1.5,1.8h-3.3v-3.8h3.3
				c0.8,0,1.5,0.7,1.5,1.5C64.6,97.4,64.6,97.5,64.6,97.5z"/>
			<path class="st1" d="M110.5,117.2h1.2c0,0-1.6-3-2.3-4.3c1.3-0.2,2.1-1.4,2-2.6V110c0.2-1.3-0.8-2.5-2.1-2.7c-0.1,0-0.2,0-0.3,0
				h-4.3v9.9h1V113h2.7C108.6,113.5,110.5,117.2,110.5,117.2z M110.4,110v0.3c0.1,0.8-0.4,1.6-1.2,1.8c-0.1,0-0.1,0-0.2,0h-3.3v-3.8
				h3.3c0.8,0,1.5,0.8,1.4,1.6C110.4,109.9,110.4,110,110.4,110z"/>
			<rect x="68.2" y="94.9" class="st1" width="1" height="9.9"/>
			<path class="st1" d="M79.7,101.5v-3.7c0.1-1-0.4-2-1.2-2.7c-0.8-0.5-1.7-0.8-2.6-0.8h-0.5c-0.9,0-1.9,0.2-2.6,0.8
				c-0.8,0.6-1.3,1.6-1.2,2.7v3.7c0,1,0.4,2,1.2,2.7c0.8,0.5,1.7,0.8,2.6,0.8h0.5h0.4l1.6,2H79l-1.7-2.2c0.4-0.1,0.8-0.3,1.2-0.6
				C79.3,103.6,79.8,102.6,79.7,101.5z M75.9,104h-0.5c-2.6,0-2.9-1.7-2.9-2.5v-3.7c0-0.8,0.3-2.5,2.9-2.5h0.5
				c2.6,0,2.9,1.7,2.9,2.5v3.7C78.8,102.3,78.5,104,75.9,104z"/>
			<path class="st1" d="M86.1,105h-0.5c-1.7,0.2-3.3-1-3.5-2.7c0-0.2,0-0.5,0-0.7V95h1v6.6c-0.2,1.2,0.7,2.3,1.9,2.5
				c0.2,0,0.4,0,0.6,0h0.5c1.2,0.2,2.3-0.7,2.5-1.9c0-0.2,0-0.4,0-0.6V95h1v6.6c0.2,1.7-1.1,3.3-2.8,3.5C86.5,105,86.3,105,86.1,105
				z"/>
			<polygon class="st1" points="98.2,103.8 92.8,103.8 92.8,100.2 97.2,100.2 97.2,99.3 92.8,99.3 92.8,95.8 98,95.8 98,94.9 
				91.8,94.9 91.8,104.8 98.2,104.8 			"/>
			<rect y="52" class="st4" width="142" height="27.7"/>
			<path class="st1" d="M25.6,58.9h6.8c1.6-0.1,3.3,0.4,4.6,1.6c0.9,0.9,1.3,2.1,1.3,3.3l0,0c0.1,2-1.1,3.7-3,4.4l3.4,5h-4.6
				l-2.9-4.3h-1.7v4.3h-4L25.6,58.9z M32.2,65.8c1.3,0,2.1-0.7,2.1-1.7l0,0c0-1.1-0.8-1.7-2.2-1.7h-2.6v3.4H32.2z"/>
			<path class="st1" d="M51.4,73.5c-4.1,0.1-7.4-3-7.6-7.1c0-0.1,0-0.2,0-0.3l0,0c0.3-4.2,4-7.4,8.2-7c3.7,0.3,6.7,3.2,7,6.9l0,0
				c0,4.1-3.2,7.4-7.3,7.5C51.6,73.5,51.5,73.5,51.4,73.5z M55.8,66.1c0.1-2.4-1.8-4.4-4.2-4.5h-0.1c-2.4,0-4.3,1.9-4.3,4.3
				c0,0.1,0,0.1,0,0.2l0,0c-0.1,2.4,1.8,4.4,4.2,4.5h0.1c2.4,0,4.3-1.9,4.3-4.3C55.8,66.2,55.8,66.1,55.8,66.1L55.8,66.1z"/>
			<path class="st1" d="M71.1,69.7L71.1,69.7L66.6,63v10.2h-2.5V58.9h2.7l4.4,6.8l4.4-6.8h2.7v14.3h-2.5V63L71.1,69.7z"/>
			<path class="st1" d="M95.2,60.4h-8.7v4.9h7.8v1.5h-7.8v5h8.8v1.5H84.9V58.9h10.4v1.5H95.2z"/>
			<path class="st1" d="M108.4,73.5c-3.9,0-7.2-3.2-7.2-7.1c0-0.1,0-0.2,0-0.3l0,0c-0.1-4,3-7.3,7-7.4c0.1,0,0.1,0,0.2,0
				c3.9,0,7.2,3.2,7.2,7.1c0,0.1,0,0.1,0,0.2l0,0c0.2,4-2.9,7.3-6.9,7.5C108.6,73.5,108.5,73.5,108.4,73.5z M114.5,66.1
				c0.1-3.4-2.5-6.3-5.9-6.4c-0.1,0-0.1,0-0.2,0c-3.4,0-6.1,2.8-6.1,6.2c0,0.1,0,0.1,0,0.2l0,0c-0.1,3.4,2.5,6.3,5.9,6.4
				c0.1,0,0.1,0,0.2,0c3.4,0,6.1-2.8,6.1-6.2C114.5,66.2,114.5,66.1,114.5,66.1L114.5,66.1z"/>
			<path class="st1" d="M14.3,58.9H8v4.3h6.3c0.6,0,1.1,0.5,1.1,1.1c0,0.6-0.5,1.1-1.1,1.1l0,0h-2V64H8.1v9.2h4.1v-3.4h2
				c3,0,5.5-2.4,5.5-5.4S17.2,58.9,14.3,58.9L14.3,58.9z"/>
		</g>
	</g>
</g>
</svg>
